# xmcd CD database file
#
# Track frame offsets:
#	150
#	17160
#	34316
#	51717
#	66825
#	86986
#	109059
#	132370
#	147352
#	174616
#	184651
#
# Disc length: 2739 seconds
#
# Revision: 0
# Processed by: cddbd v1.5.1PL0 Copyright (c) Steve Scherf et al.
# Submitted via: CDex 1.50beta10
#
DISCID=a80ab10b
DTITLE=Torbjörn Gulz - Torbjörn Gulz
DYEAR=2005
DGENRE=Jazz
TTITLE0=Tissto
TTITLE1=The Green man Under The Bridge
TTITLE2=1128
TTITLE3=Vilse I Förorten
TTITLE4=Tenderly
TTITLE5=Peace
TTITLE6=Spelman Från Råssbyn
TTITLE7=Stilla
TTITLE8=Someday My Prince Will Come
TTITLE9=Poém Languide Op 52/3
TTITLE10=The Peacocks
EXTD=YEAR: 2005
EXTT0=
EXTT1=
EXTT2=
EXTT3=
EXTT4=
EXTT5=
EXTT6=
EXTT7=
EXTT8=
EXTT9=
EXTT10=
PLAYORDER=
